<svg width="14" height="19" viewBox="0 0 14 19" fill="none" xmlns="http://www.w3.org/2000/svg">
<path d="M4.92308 1.80747V2.61516H2.96154H1V3.99977V5.38439H1.28846C1.56538 5.38439 1.57692 5.41901 1.57692 6.00747C1.57692 6.35362 1.65769 8.83439 1.75 11.5229C1.94615 16.8421 1.95769 16.9344 2.65 17.4305C2.96154 17.6613 3.12308 17.6729 7 17.6729C10.8769 17.6729 11.0385 17.6613 11.35 17.4305C12.0423 16.9344 12.0538 16.8421 12.25 11.4536C12.3423 8.74208 12.4231 6.26131 12.4231 5.94977C12.4231 5.41901 12.4462 5.38439 12.7115 5.38439H13V3.99977V2.61516H11.1538H9.30769V1.80747V0.999775H7.11538H4.92308V1.80747ZM8.84615 2.03824V2.61516H7.17308H5.5V2.03824V1.46131H7.17308H8.84615V2.03824ZM12.5385 3.99977V4.80747H7H1.46154V3.99977V3.19208H7H12.5385V3.99977ZM11.8462 6.15747C11.8462 6.59593 11.7654 9.05362 11.6731 11.6382C11.5 16.7036 11.5 16.7267 10.8538 17.0152C10.45 17.2113 3.55 17.2113 3.14615 17.0152C2.51154 16.7382 2.5 16.669 2.32692 11.9844C2.23462 9.59593 2.15385 7.1267 2.15385 6.50362V5.38439H7H11.8462V6.15747Z" fill="#08ECC4" fill-opacity="0.92549"/>
<path d="M4.92308 1.80747V2.61516H2.96154H1V3.99977V5.38439H1.28846C1.56538 5.38439 1.57692 5.41901 1.57692 6.00747C1.57692 6.35362 1.65769 8.83439 1.75 11.5229C1.94615 16.8421 1.95769 16.9344 2.65 17.4305C2.96154 17.6613 3.12308 17.6729 7 17.6729C10.8769 17.6729 11.0385 17.6613 11.35 17.4305C12.0423 16.9344 12.0538 16.8421 12.25 11.4536C12.3423 8.74208 12.4231 6.26131 12.4231 5.94977C12.4231 5.41901 12.4462 5.38439 12.7115 5.38439H13V3.99977V2.61516H11.1538H9.30769V1.80747V0.999775H7.11538H4.92308V1.80747ZM8.84615 2.03824V2.61516H7.17308H5.5V2.03824V1.46131H7.17308H8.84615V2.03824ZM12.5385 3.99977V4.80747H7H1.46154V3.99977V3.19208H7H12.5385V3.99977ZM11.8462 6.15747C11.8462 6.59593 11.7654 9.05362 11.6731 11.6382C11.5 16.7036 11.5 16.7267 10.8538 17.0152C10.45 17.2113 3.55 17.2113 3.14615 17.0152C2.51154 16.7382 2.5 16.669 2.32692 11.9844C2.23462 9.59593 2.15385 7.1267 2.15385 6.50362V5.38439H7H11.8462V6.15747Z" stroke="#08ECC4" stroke-width="0.7"/>
<path d="M4.92308 1.80747V2.61516H2.96154H1V3.99977V5.38439H1.28846C1.56538 5.38439 1.57692 5.41901 1.57692 6.00747C1.57692 6.35362 1.65769 8.83439 1.75 11.5229C1.94615 16.8421 1.95769 16.9344 2.65 17.4305C2.96154 17.6613 3.12308 17.6729 7 17.6729C10.8769 17.6729 11.0385 17.6613 11.35 17.4305C12.0423 16.9344 12.0538 16.8421 12.25 11.4536C12.3423 8.74208 12.4231 6.26131 12.4231 5.94977C12.4231 5.41901 12.4462 5.38439 12.7115 5.38439H13V3.99977V2.61516H11.1538H9.30769V1.80747V0.999775H7.11538H4.92308V1.80747ZM8.84615 2.03824V2.61516H7.17308H5.5V2.03824V1.46131H7.17308H8.84615V2.03824ZM12.5385 3.99977V4.80747H7H1.46154V3.99977V3.19208H7H12.5385V3.99977ZM11.8462 6.15747C11.8462 6.59593 11.7654 9.05362 11.6731 11.6382C11.5 16.7036 11.5 16.7267 10.8538 17.0152C10.45 17.2113 3.55 17.2113 3.14615 17.0152C2.51154 16.7382 2.5 16.669 2.32692 11.9844C2.23462 9.59593 2.15385 7.1267 2.15385 6.50362V5.38439H7H11.8462V6.15747Z" stroke="#E53E3E" stroke-width="0.7"/>
<path d="M3.94519 7.71531C3.91058 7.79608 3.89904 9.37685 3.91058 11.2115C3.94519 14.4653 3.95673 14.5576 4.17596 14.5576C4.40673 14.5576 4.40673 14.4768 4.40673 11.0961C4.40673 7.88839 4.39519 7.63454 4.19904 7.59992C4.09519 7.57685 3.97981 7.63454 3.94519 7.71531Z" fill="#08ECC4" fill-opacity="0.92549"/>
<path d="M3.94519 7.71531C3.91058 7.79608 3.89904 9.37685 3.91058 11.2115C3.94519 14.4653 3.95673 14.5576 4.17596 14.5576C4.40673 14.5576 4.40673 14.4768 4.40673 11.0961C4.40673 7.88839 4.39519 7.63454 4.19904 7.59992C4.09519 7.57685 3.97981 7.63454 3.94519 7.71531Z" stroke="#08ECC4" stroke-width="0.7"/>
<path d="M3.94519 7.71531C3.91058 7.79608 3.89904 9.37685 3.91058 11.2115C3.94519 14.4653 3.95673 14.5576 4.17596 14.5576C4.40673 14.5576 4.40673 14.4768 4.40673 11.0961C4.40673 7.88839 4.39519 7.63454 4.19904 7.59992C4.09519 7.57685 3.97981 7.63454 3.94519 7.71531Z" stroke="#E53E3E" stroke-width="0.7"/>
<path d="M6.79101 11.0615C6.82562 14.2807 6.83716 14.5577 7.03331 14.5923C7.21793 14.6269 7.22947 14.4077 7.22947 11.1077C7.22947 7.64612 7.22947 7.57689 6.9987 7.57689C6.76793 7.57689 6.76793 7.63458 6.79101 11.0615Z" fill="#08ECC4" fill-opacity="0.92549"/>
<path d="M6.79101 11.0615C6.82562 14.2807 6.83716 14.5577 7.03331 14.5923C7.21793 14.6269 7.22947 14.4077 7.22947 11.1077C7.22947 7.64612 7.22947 7.57689 6.9987 7.57689C6.76793 7.57689 6.76793 7.63458 6.79101 11.0615Z" stroke="#08ECC4" stroke-width="0.7"/>
<path d="M6.79101 11.0615C6.82562 14.2807 6.83716 14.5577 7.03331 14.5923C7.21793 14.6269 7.22947 14.4077 7.22947 11.1077C7.22947 7.64612 7.22947 7.57689 6.9987 7.57689C6.76793 7.57689 6.76793 7.63458 6.79101 11.0615Z" stroke="#E53E3E" stroke-width="0.7"/>
<path d="M9.55921 11.0615C9.59383 14.4653 9.59383 14.5576 9.82459 14.5576C10.0554 14.5576 10.0554 14.4768 10.0554 11.0961V7.63454L9.78998 7.59992L9.53613 7.56531L9.55921 11.0615Z" fill="#08ECC4" fill-opacity="0.92549"/>
<path d="M9.55921 11.0615C9.59383 14.4653 9.59383 14.5576 9.82459 14.5576C10.0554 14.5576 10.0554 14.4768 10.0554 11.0961V7.63454L9.78998 7.59992L9.53613 7.56531L9.55921 11.0615Z" stroke="#08ECC4" stroke-width="0.7"/>
<path d="M9.55921 11.0615C9.59383 14.4653 9.59383 14.5576 9.82459 14.5576C10.0554 14.5576 10.0554 14.4768 10.0554 11.0961V7.63454L9.78998 7.59992L9.53613 7.56531L9.55921 11.0615Z" stroke="#E53E3E" stroke-width="0.7"/>
</svg>
