<svg width="18" height="18" viewBox="0 0 18 18" fill="none" xmlns="http://www.w3.org/2000/svg">
<g id="edit" clip-path="url(#clip0_941_11556)">
<g id="Vector">
<path d="M2.77246 12.7801V14.8847C2.77246 15.0785 2.92477 15.2308 3.11861 15.2308H5.22323C5.31323 15.2308 5.40323 15.1962 5.46554 15.127L13.0255 7.57392L10.4294 4.97777L2.87631 12.5308C2.80708 12.6001 2.77246 12.6832 2.77246 12.7801ZM15.0332 5.56623C15.3032 5.29623 15.3032 4.86008 15.0332 4.59008L13.4132 2.97008C13.1432 2.70008 12.7071 2.70008 12.4371 2.97008L11.1702 4.237L13.7663 6.83315L15.0332 5.56623V5.56623Z" fill="#08ECC4"/>
<path d="M2.77246 12.7801V14.8847C2.77246 15.0785 2.92477 15.2308 3.11861 15.2308H5.22323C5.31323 15.2308 5.40323 15.1962 5.46554 15.127L13.0255 7.57392L10.4294 4.97777L2.87631 12.5308C2.80708 12.6001 2.77246 12.6832 2.77246 12.7801ZM15.0332 5.56623C15.3032 5.29623 15.3032 4.86008 15.0332 4.59008L13.4132 2.97008C13.1432 2.70008 12.7071 2.70008 12.4371 2.97008L11.1702 4.237L13.7663 6.83315L15.0332 5.56623V5.56623Z" fill="#08ECC4"/>
</g>
</g>
<defs>
<clipPath id="clip0_941_11556">
<rect width="16.6154" height="16.6154" fill="white" transform="translate(0.695312 0.692383)"/>
</clipPath>
</defs>
</svg>
